<svg width="16" height="16" viewBox="0 0 16 16" fill="none" xmlns="http://www.w3.org/2000/svg">
<path fill-rule="evenodd" clip-rule="evenodd" d="M1.33337 3.83335C1.33337 3.46516 1.63185 3.16669 2.00004 3.16669H9.66671C10.0349 3.16669 10.3334 3.46516 10.3334 3.83335C10.3334 4.20154 10.0349 4.50002 9.66671 4.50002H2.00004C1.63185 4.50002 1.33337 4.20154 1.33337 3.83335ZM12 3.16669C12.3682 3.16669 12.6667 3.46516 12.6667 3.83335V10.6978L13.4939 9.73283C13.7335 9.45328 14.1544 9.4209 14.4339 9.66052C14.7135 9.90013 14.7458 10.321 14.5062 10.6005L12.5062 12.9339C12.3247 13.1457 12.0304 13.2221 11.7687 13.1253C11.5071 13.0285 11.3334 12.779 11.3334 12.5V3.83335C11.3334 3.46516 11.6319 3.16669 12 3.16669ZM1.33337 8.16669C1.33337 7.7985 1.63185 7.50002 2.00004 7.50002H9.66671C10.0349 7.50002 10.3334 7.7985 10.3334 8.16669C10.3334 8.53488 10.0349 8.83335 9.66671 8.83335H2.00004C1.63185 8.83335 1.33337 8.53488 1.33337 8.16669ZM1.33337 12.5C1.33337 12.1318 1.63185 11.8334 2.00004 11.8334H9.66671C10.0349 11.8334 10.3334 12.1318 10.3334 12.5C10.3334 12.8682 10.0349 13.1667 9.66671 13.1667H2.00004C1.63185 13.1667 1.33337 12.8682 1.33337 12.5Z" fill="black"/>
</svg>
