<svg width="12" height="12" viewBox="0 0 12 12" fill="none" xmlns="http://www.w3.org/2000/svg">
<path fill-rule="evenodd" clip-rule="evenodd" d="M1 2C1 1.44772 1.44772 1 2 1H4.5C5.05229 1 5.5 1.44772 5.5 2V4.5C5.5 5.05229 5.05229 5.5 4.5 5.5H2C1.44772 5.5 1 5.05229 1 4.5V2ZM4.5 2H2V4.5H4.5V2ZM6.5 2C6.5 1.44772 6.94772 1 7.5 1H10C10.5523 1 11 1.44772 11 2V4.5C11 5.05229 10.5523 5.5 10 5.5H7.5C6.94772 5.5 6.5 5.05229 6.5 4.5V2ZM10 2H7.5V4.5H10V2ZM1 7.5C1 6.94772 1.44772 6.5 2 6.5H4.5C5.05229 6.5 5.5 6.94772 5.5 7.5V10C5.5 10.5523 5.05229 11 4.5 11H2C1.44772 11 1 10.5523 1 10V7.5ZM4.5 7.5H2V10H4.5V7.5ZM6.5 7.5C6.5 6.94772 6.94772 6.5 7.5 6.5H10C10.5523 6.5 11 6.94772 11 7.5V10C11 10.5523 10.5523 11 10 11H7.5C6.94772 11 6.5 10.5523 6.5 10V7.5ZM10 7.5H7.5V10H10V7.5Z" fill="white"/>
</svg>
