<svg width="20" height="20" viewBox="0 0 20 20" fill="none" xmlns="http://www.w3.org/2000/svg">
<path fill-rule="evenodd" clip-rule="evenodd" d="M1.66663 3.33335C1.66663 2.41288 2.41282 1.66669 3.33329 1.66669H7.49996C8.42043 1.66669 9.16663 2.41288 9.16663 3.33335V7.50002C9.16663 8.4205 8.42043 9.16669 7.49996 9.16669H3.33329C2.41282 9.16669 1.66663 8.4205 1.66663 7.50002V3.33335ZM7.49996 3.33335H3.33329V7.50002H7.49996V3.33335ZM10.8333 3.33335C10.8333 2.41288 11.5795 1.66669 12.5 1.66669H16.6666C17.5871 1.66669 18.3333 2.41288 18.3333 3.33335V7.50002C18.3333 8.4205 17.5871 9.16669 16.6666 9.16669H12.5C11.5795 9.16669 10.8333 8.4205 10.8333 7.50002V3.33335ZM16.6666 3.33335H12.5V7.50002H16.6666V3.33335ZM1.66663 12.5C1.66663 11.5795 2.41282 10.8334 3.33329 10.8334H7.49996C8.42043 10.8334 9.16663 11.5795 9.16663 12.5V16.6667C9.16663 17.5872 8.42043 18.3334 7.49996 18.3334H3.33329C2.41282 18.3334 1.66663 17.5872 1.66663 16.6667V12.5ZM7.49996 12.5H3.33329V16.6667H7.49996V12.5ZM10.8333 12.5C10.8333 11.5795 11.5795 10.8334 12.5 10.8334H16.6666C17.5871 10.8334 18.3333 11.5795 18.3333 12.5V16.6667C18.3333 17.5872 17.5871 18.3334 16.6666 18.3334H12.5C11.5795 18.3334 10.8333 17.5872 10.8333 16.6667V12.5ZM16.6666 12.5H12.5V16.6667H16.6666V12.5Z" fill="white"/>
</svg>
