<svg width="15" height="15" viewBox="0 0 15 15" fill="none" xmlns="http://www.w3.org/2000/svg">
<path d="M13.75 2.1875C13.8429 2.18937 13.931 2.20635 14.019 2.2482C14.1098 2.2916 14.1896 2.357 14.25 2.4375C14.2896 2.4965 14.2803 2.47879 14.25 2.4375C14.331 2.54544 14.375 2.67761 14.375 2.8125C14.3748 2.77921 14.3734 2.76476 14.375 2.8125V12.1875C14.375 12.5327 14.0952 12.8125 13.75 12.8125H1.25C0.904822 12.8125 0.625 12.5327 0.625 12.1875V2.8125C0.625 2.70061 0.655354 2.5895 0.712452 2.49354C0.828808 2.29749 1.03035 2.19193 1.25 2.1875H13.75ZM13.125 4.0625L7.875 8C7.675 8.15 7.4075 8.165 7.194 8.045L7.125 8L1.875 4.0625V11.5625H13.125V4.0625ZM3.125 3.4375L7.5 6.71875L11.875 3.4375H3.125Z" fill="#C93E33"/>
</svg>
