<svg width="20" height="20" viewBox="0 0 20 20" fill="none" xmlns="http://www.w3.org/2000/svg">
<path fill-rule="evenodd" clip-rule="evenodd" d="M3.33333 3.33331C3.79357 3.33331 4.16667 3.70641 4.16667 4.16665V9.58331C4.16667 9.81344 4.35321 9.99998 4.58333 9.99998H14.6548L12.7441 8.08923C12.4186 7.7638 12.4186 7.23616 12.7441 6.91072C13.0695 6.58529 13.5972 6.58529 13.9226 6.91072L17.2559 10.2441C17.5814 10.5695 17.5814 11.0971 17.2559 11.4226L13.9226 14.7559C13.5972 15.0813 13.0695 15.0813 12.7441 14.7559C12.4186 14.4305 12.4186 13.9028 12.7441 13.5774L14.6548 11.6666H4.58333C3.43275 11.6666 2.5 10.7339 2.5 9.58331V4.16665C2.5 3.70641 2.8731 3.33331 3.33333 3.33331Z" fill="#C93E33"/>
</svg>
